<?xml version="1.0" encoding="utf-8"?>
<!-- Generator: Adobe Illustrator 16.0.0, SVG Export Plug-In . SVG Version: 6.00 Build 0)  -->
<!DOCTYPE svg PUBLIC "-//W3C//DTD SVG 1.1//EN" "http://www.w3.org/Graphics/SVG/1.1/DTD/svg11.dtd">
<svg version="1.1" id="Layer_1" xmlns="http://www.w3.org/2000/svg" xmlns:xlink="http://www.w3.org/1999/xlink" x="0px" y="0px"
	 width="193.06px" height="54.979px" viewBox="-0.499 -110.001 193.06 54.979"
	 enable-background="new -0.499 -110.001 193.06 54.979" xml:space="preserve">
<g>
	<g>
		<path fill="#FFFFFF" d="M12.616-110.001H0.001h-0.5v0.5v29.941v0.5h0.5h0.841h0.5v-0.5v-13.167h10.979
			c5.746,0,9.458-3.398,9.458-8.658C21.779-106.78,18.354-110.001,12.616-110.001z M1.342-108.201h10.686
			c5.222,0,7.869,2.308,7.869,6.859c0,4.268-2.91,6.816-7.785,6.816H1.342V-108.201z"/>
		<path fill="#FFFFFF" d="M35.491-101.632h-0.007h-0.006c-3.936,0.105-6.448,1.388-8.021,4.199v-3.657v-0.5h-0.5h-0.845h-0.5v0.5
			v21.532v0.5h0.5h0.845h0.5v-0.5V-89.4c0-2.823,0.078-3.561,0.522-4.934c1.208-3.744,3.458-5.376,7.524-5.458l0.49-0.01v-0.49
			C35.994-101.401,35.994-101.632,35.491-101.632z"/>
		<polygon fill="#FFFFFF" points="38.773,-110.001 38.273,-110.001 38.273,-109.501 38.273,-105.211 38.273,-104.711 
			38.773,-104.711 39.656,-104.711 40.156,-104.711 40.156,-105.211 40.156,-109.501 40.156,-110.001 39.656,-110.001 		"/>
		<polygon fill="#FFFFFF" points="38.773,-101.59 38.273,-101.59 38.273,-101.09 38.273,-79.558 38.273,-79.058 38.773,-79.058 
			39.656,-79.058 40.156,-79.058 40.156,-79.558 40.156,-101.09 40.156,-101.59 39.656,-101.59 		"/>
		<path fill="#FFFFFF" d="M67.622-102.138c-3.145,0-5.5,1.426-6.88,4.142c-1.115-2.624-3.42-4.1-6.492-4.1
			c-2.952,0-5.2,1.249-6.607,3.642v-2.636v-0.5h-0.5h-0.841h-0.5v0.5v21.53v0.5h0.5h0.84h0.5v-0.5v-12.574
			c0-4.883,2.604-8.163,6.48-8.163c4.488,0,5.43,3.342,5.43,6.145v14.592v0.5h0.5h0.84h0.5v-0.5v-14.045
			c0-4.065,2.429-6.691,6.188-6.691c3.528,0,5.472,2.048,5.472,5.767v14.97v0.5h0.5h0.882h0.5v-0.5v-14.677
			C74.933-99.332,72.337-102.138,67.622-102.138z"/>
		<path fill="#FFFFFF" d="M96.851-86.122c-0.737,3.13-3.376,6.022-7.487,6.022c-3.877,0-8.013-2.545-8.199-9.641h17.45h0.5v-0.5
			v-0.841c0-2.829-0.843-5.48-2.373-7.466c-1.769-2.294-4.305-3.506-7.336-3.506c-6.059,0-10.13,4.814-10.13,11.98
			c0,7.016,4.054,11.729,10.088,11.729c4.751,0,8.352-3.025,9.38-7.778H96.851z M89.406-100.254c5.238,0,7.688,4.298,7.859,8.715
			H81.187C81.519-95.831,84.166-100.254,89.406-100.254z"/>
	</g>
	<g enable-background="new    ">
		<polygon fill="#00A6EB" points="123.89,-80.86 103.487,-80.86 123.954,-108.107 124.054,-108.241 124.054,-108.409 
			124.052,-109.502 124.052,-110.001 123.552,-110.001 102.821,-110.001 102.321,-110.001 102.321,-109.501 102.321,-108.702 
			102.321,-108.202 102.821,-108.202 121.754,-108.202 101.287,-80.997 101.186,-80.863 101.186,-80.696 101.186,-79.558 
			101.186,-79.058 101.686,-79.058 123.89,-79.058 124.39,-79.058 124.39,-79.558 124.39,-80.36 124.39,-80.86 		"/>
		<path fill="#00A6EB" d="M136.3-102.136h-0.003c-6.16,0-10.299,4.764-10.299,11.854c0,7.201,3.993,11.854,10.172,11.854
			c6.205,0,10.215-4.587,10.215-11.688C146.385-97.417,142.426-102.136,136.3-102.136z M136.213-80.226
			c-5.087,0-8.373-3.964-8.373-10.099c0-5.989,3.382-10.013,8.416-10.014c5.01,0,8.246,4.013,8.246,10.224
			C144.502-84.107,141.248-80.226,136.213-80.226z"/>
		<path fill="#00A6EB" d="M160.183-102.096c-3.16,0-5.909,1.559-7.49,4.115v-3.109v-0.5h-0.5h-0.841h-0.5v0.5v21.53v0.5h0.5h0.883
			h0.5v-0.5v-11.943c0-4.251,1.979-8.794,7.532-8.794c5.253,0,6.355,3.708,6.355,6.817v13.919v0.5h0.5h0.883h0.5v-0.5v-14.213
			C168.506-98.984,165.394-102.096,160.183-102.096z"/>
		<path fill="#00A6EB" d="M190.303-86.153c-0.728,3.142-3.37,6.054-7.495,6.054c-3.877,0-8.014-2.545-8.198-9.641h17.45h0.5v-0.5
			v-0.841c0-2.829-0.844-5.48-2.375-7.466c-1.769-2.294-4.305-3.506-7.334-3.506c-6.06,0-10.131,4.814-10.131,11.98
			c0,7.016,4.054,11.729,10.088,11.729c4.763,0,8.368-3.039,9.386-7.81H190.303z M182.851-100.254c5.237,0,7.687,4.298,7.857,8.715
			h-16.077C174.961-95.831,177.607-100.254,182.851-100.254z"/>
	</g>
	<g enable-background="new    ">
		<g>
			<polygon fill="#F7F7F8" points="7.822,-57.49 7.772,-62.454 0.316,-62.404 0.366,-57.54 0.001,-57.49 -0.049,-67.205 
				0.313,-67.255 0.363,-62.713 7.818,-62.763 7.768,-67.205 8.135,-67.255 8.189,-57.49 			"/>
			<path fill="#FFFFFF" d="M8.135-67.205l0.004,9.666H7.822v-4.914H0.316v4.914H0.001v-9.666h0.312v4.492h7.505v-4.492H8.135
				 M8.236-67.305h-0.1H7.818h-0.1v0.1v4.392H0.413v-4.392v-0.1h-0.1H0.001h-0.1v0.1v9.666v0.1h0.1h0.315h0.1v-0.1v-4.814h7.306
				v4.814v0.1h0.1h0.317h0.1v-0.1l-0.004-9.666V-67.305L8.236-67.305z"/>
		</g>
		<g>
			<path fill="#F7F7F8" d="M14.28-57.294c-1.669,0-2.627-0.722-2.627-1.981c0-1.315,1.012-2.02,3.094-2.153l0.84-0.051
				c0.829-0.048,1.207-0.07,1.445-0.201c0.29-0.165,0.289-0.478,0.289-0.78c0-1.314-0.742-1.906-2.333-1.906
				c-1.516,0-2.349,0.679-2.478,2.017l-0.339,0.045c0.088-1.573,1.117-2.409,2.848-2.409c1.733,0,2.688,0.721,2.688,2.029v4.191
				c0,0.436,0.083,0.673,0.523,0.673c0.147,0,0.234-0.014,0.425-0.067l0.057,0.295c-0.214,0.091-0.338,0.105-0.532,0.105
				c-0.396,0-0.637-0.106-0.757-0.334c-0.107-0.204-0.107-0.479-0.107-0.796c0-0.214,0-0.214,0.006-0.355l0.012-0.287
				C16.843-57.912,15.842-57.294,14.28-57.294z M17.312-61.5c-0.339,0.308-0.962,0.34-1.865,0.388
				c-0.25,0.013-0.523,0.027-0.821,0.049c-1.337,0.101-2.576,0.389-2.576,1.81c0,1.029,0.817,1.62,2.241,1.62
				c0.835,0,1.514-0.225,2.017-0.668c0.619-0.532,1.004-1.303,1.004-2.013V-61.5z"/>
			<path fill="#FFFFFF" d="M15.019-64.666c1.479,0,2.638,0.543,2.638,1.979v4.191c0,0.422,0.076,0.723,0.573,0.723
				c0.151,0,0.241-0.014,0.438-0.068l-0.006,0.246c-0.166,0.041-0.286,0.057-0.482,0.057c-0.829,0-0.814-0.477-0.814-1.113
				c0-0.258,0-0.146,0.019-0.607c-0.542,1.224-1.479,1.914-3.104,1.914s-2.577-0.707-2.577-1.932c0-1.611,1.556-2.008,3.048-2.104
				c1.432-0.096,1.985-0.082,2.306-0.258c0.332-0.188,0.314-0.559,0.314-0.869c0-1.354-0.846-1.911-2.383-1.911
				c-1.521,0-2.396,0.688-2.527,2.062h-0.289C12.307-63.848,13.302-64.666,15.019-64.666 M14.292-57.583
				c0.855,0,1.538-0.229,2.05-0.681c0.603-0.518,1.021-1.305,1.021-2.051v-1.312c-0.373,0.476-1.263,0.407-2.739,0.514
				c-1.312,0.099-2.622,0.384-2.622,1.859C12.001-58.192,12.844-57.583,14.292-57.583 M15.019-64.766c-1.76,0-2.807,0.853-2.947,2.4
				l-0.01,0.109h0.109h0.289h0.091l0.009-0.09c0.125-1.308,0.942-1.971,2.428-1.971c1.558,0,2.283,0.575,2.283,1.811v0.045
				c0.001,0.289,0.002,0.586-0.264,0.737c-0.228,0.125-0.627,0.147-1.423,0.193c-0.241,0.014-0.518,0.03-0.84,0.052
				c-0.776,0.05-3.141,0.201-3.141,2.203c0,1.272,1.001,2.032,2.677,2.032c1.412,0,2.372-0.498,2.986-1.56c0,0.036,0,0.08,0,0.153
				v0.033c0,0.325,0,0.605,0.113,0.819c0.13,0.247,0.385,0.361,0.801,0.361c0.198,0,0.326-0.015,0.506-0.06l0.074-0.019l0.002-0.076
				l0.006-0.246l0.003-0.135l-0.13,0.036c-0.188,0.052-0.268,0.064-0.412,0.064c-0.402,0-0.473-0.201-0.473-0.623v-4.191
				C17.757-64.027,16.785-64.766,15.019-64.766L15.019-64.766z M14.292-57.684c-1.393,0-2.191-0.572-2.191-1.57
				c0-1.379,1.216-1.661,2.529-1.76c0.296-0.021,0.569-0.036,0.819-0.049c0.845-0.044,1.449-0.076,1.812-0.333v1.081
				c0,0.696-0.377,1.453-0.985,1.975C15.782-57.904,15.115-57.684,14.292-57.684L14.292-57.684z"/>
		</g>
		<g>
			<path fill="#F7F7F8" d="M21.86-55.073l-0.05-9.415l0.337-0.05l0.05,1.988c0.434-1.483,1.44-2.195,2.979-2.195
				c2.063,0,3.396,1.475,3.396,3.757c0,2.232-1.369,3.732-3.407,3.732c-1.538,0-2.655-0.78-3.065-2.14l0.116,0.77v3.553H21.86z
				 M25.177-64.386c-1.894,0-2.979,1.253-2.979,3.438c0,1.617,0.783,3.346,2.979,3.346c1.847,0,2.995-1.301,2.995-3.396
				C28.172-63.088,27.024-64.386,25.177-64.386z"/>
			<path fill="#FFFFFF" d="M25.177-64.695c2.035,0,3.346,1.453,3.346,3.707c0,2.216-1.326,3.683-3.357,3.683
				c-1.632,0-2.641-0.854-3.018-2.104l0.019,0.785v3.502H21.86v-9.365h0.287v1.938C22.614-63.838,23.504-64.695,25.177-64.695
				 M25.177-57.553c1.854,0,3.045-1.33,3.045-3.445c0-2.135-1.161-3.438-3.045-3.438c-1.93,0-3.029,1.264-3.029,3.487
				C22.147-59.24,22.99-57.553,25.177-57.553 M25.177-64.795c-1.392,0-2.354,0.574-2.929,1.751v-1.444v-0.1h-0.1H21.86h-0.1v0.1
				v9.365v0.1h0.1h0.306h0.1v-0.1v-3.502l-0.005-0.226c0.524,1.053,1.555,1.646,2.904,1.646c2.068,0,3.458-1.52,3.458-3.783
				C28.622-63.3,27.27-64.795,25.177-64.795L25.177-64.795z M25.177-57.653c-2.16,0-2.929-1.702-2.929-3.295
				c0-2.153,1.067-3.387,2.929-3.387c1.844,0,2.945,1.248,2.945,3.337C28.121-58.935,26.993-57.653,25.177-57.653L25.177-57.653z"/>
		</g>
		<g>
			<path fill="#F7F7F8" d="M32.322-55.073l-0.05-9.415l0.337-0.05l0.05,1.988c0.434-1.483,1.44-2.195,2.979-2.195
				c2.063,0,3.396,1.475,3.396,3.757c0,2.232-1.369,3.732-3.407,3.732c-1.539,0-2.656-0.78-3.065-2.14l0.116,0.77v3.553H32.322z
				 M35.638-64.386c-1.894,0-2.979,1.253-2.979,3.438c0,1.617,0.783,3.346,2.979,3.346c1.847,0,2.995-1.301,2.995-3.396
				C38.634-63.088,37.486-64.386,35.638-64.386z"/>
			<path fill="#FFFFFF" d="M35.638-64.695c2.035,0,3.346,1.453,3.346,3.707c0,2.216-1.327,3.683-3.357,3.683
				c-1.628,0-2.642-0.854-3.018-2.104l0.019,0.785v3.502h-0.306v-9.365h0.287v1.938C33.076-63.838,33.966-64.695,35.638-64.695
				 M35.638-57.553c1.854,0,3.045-1.33,3.045-3.445c0-2.135-1.161-3.438-3.045-3.438c-1.929,0-3.029,1.264-3.029,3.487
				C32.609-59.24,33.457-57.553,35.638-57.553 M35.638-64.795c-1.392,0-2.354,0.574-2.929,1.751v-1.444v-0.1h-0.1h-0.287h-0.1v0.1
				v9.365v0.1h0.1h0.306h0.1v-0.1v-3.502l-0.005-0.225c0.523,1.053,1.554,1.645,2.904,1.645c2.068,0,3.458-1.52,3.458-3.783
				C39.084-63.3,37.732-64.795,35.638-64.795L35.638-64.795z M35.638-57.653c-2.16,0-2.929-1.702-2.929-3.295
				c0-2.153,1.067-3.387,2.929-3.387c1.844,0,2.945,1.248,2.945,3.337C38.583-58.935,37.455-57.653,35.638-57.653L35.638-57.653z"/>
		</g>
		<g>
			<path fill="#F7F7F8" d="M42.68-57.49l-0.05-6.999l0.366-0.05l0.05,7.049H42.68z M42.68-65.771l-0.05-1.435l0.366-0.05l0.05,1.484
				H42.68z"/>
			<path fill="#FFFFFF" d="M42.997-67.206v1.385H42.68v-1.385H42.997 M42.997-64.489v6.949H42.68v-6.949H42.997 M43.097-67.306h-0.1
				H42.68h-0.1v0.1v1.385v0.1h0.1h0.316h0.1v-0.1v-1.385V-67.306L43.097-67.306z M43.097-64.589h-0.1H42.68h-0.1v0.1v6.949v0.1h0.1
				h0.316h0.1v-0.1v-6.949V-64.589L43.097-64.589z"/>
		</g>
		<g>
			<path fill="#F7F7F8" d="M47.01-57.492l-0.05-6.999l0.351-0.05l0.046,1.799c0.305-1.199,1.447-1.964,2.814-1.964
				c1.787,0,2.854,0.961,2.854,2.572v4.591l-0.366,0.05l-0.05-4.542c0-0.863-0.313-2.311-2.408-2.311
				c-2.085,0-2.828,1.524-2.828,2.95v3.903H47.01z"/>
			<path fill="#FFFFFF" d="M50.172-64.656c1.839,0,2.804,1.021,2.804,2.522v4.591h-0.316v-4.492c0-1.315-0.679-2.36-2.458-2.36
				c-2.125,0-2.878,1.588-2.878,3v3.854H47.01v-6.949h0.301l-0.004,1.749C47.684-63.852,48.769-64.656,50.172-64.656 M50.172-64.756
				c-1.208,0-2.245,0.589-2.763,1.536l0.003-1.271v-0.1h-0.1H47.01h-0.1v0.1v6.949v0.1h0.1h0.312h0.1v-0.1v-3.854
				c0-1.402,0.729-2.9,2.778-2.9c2.052,0,2.358,1.416,2.358,2.26v4.492v0.1h0.1h0.316h0.1v-0.1v-4.591
				C53.075-63.775,51.99-64.756,50.172-64.756L50.172-64.756z"/>
		</g>
		<g>
			<path fill="#F7F7F8" d="M69.514-57.275c-1.986,0-3.08-0.938-3.08-2.642l0.366-0.05c0.05,1.548,0.951,2.309,2.728,2.309
				c1.479,0,2.513-0.677,2.513-1.646c0-1.106-1.286-1.373-2.319-1.587l-0.407-0.084c-1.157-0.237-2.597-0.531-2.597-1.857
				c0-1.169,1.016-1.867,2.717-1.867c1.785,0,2.809,0.825,2.809,2.263l-0.363,0.044c-0.049-1.312-0.88-1.953-2.521-1.953
				c-1.37,0-2.222,0.568-2.222,1.482c0,1.075,1.241,1.323,2.237,1.523l0.447,0.092c1.167,0.247,2.621,0.554,2.621,1.944
				C72.442-58.109,71.239-57.275,69.514-57.275z"/>
			<path fill="#FFFFFF" d="M69.434-64.649c1.719,0,2.759,0.772,2.759,2.213l-0.312-0.006c0-1.345-0.938-1.953-2.521-1.953
				c-1.397,0-2.271,0.598-2.271,1.532c0,1.224,1.521,1.41,2.562,1.63c1.205,0.258,2.743,0.518,2.743,1.93
				c0,1.166-1.176,1.979-2.878,1.979c-1.959,0-3.03-0.938-3.03-2.592h0.316c0,1.521,0.935,2.309,2.728,2.309
				c1.511,0,2.562-0.691,2.562-1.695c0-1.209-1.492-1.453-2.521-1.67c-1.157-0.244-2.803-0.479-2.803-1.858
				C66.767-63.973,67.762-64.649,69.434-64.649 M69.434-64.749c-1.732,0-2.767,0.717-2.767,1.917c0,1.367,1.524,1.678,2.638,1.906
				l0.245,0.05l0.162,0.034c1.016,0.21,2.279,0.473,2.279,1.538c0,0.939-1.013,1.595-2.462,1.595c-1.744,0-2.627-0.743-2.627-2.208
				v-0.1h-0.1h-0.316h-0.1v0.1c0,1.71,1.141,2.692,3.13,2.692c1.753,0,2.978-0.855,2.978-2.079c0-1.431-1.475-1.743-2.661-1.993
				l-0.162-0.034c-0.092-0.02-0.188-0.039-0.286-0.058c-0.979-0.196-2.197-0.44-2.197-1.474c0-0.883,0.832-1.432,2.171-1.432
				c1.607,0,2.421,0.624,2.421,1.853v0.098l0.098,0.002l0.312,0.006l0.102,0.002v-0.102C72.293-63.906,71.251-64.749,69.434-64.749
				L69.434-64.749z"/>
		</g>
		<g>
			<path fill="#F7F7F8" d="M78.859-57.275c-1.984,0-3.076-0.938-3.076-2.642l0.362-0.05c0.05,1.548,0.952,2.309,2.729,2.309
				c1.479,0,2.512-0.677,2.512-1.646c0-1.105-1.283-1.372-2.313-1.587l-0.408-0.084c-1.16-0.236-2.603-0.531-2.603-1.857
				c0-1.169,1.017-1.867,2.72-1.867c1.786,0,2.81,0.825,2.81,2.263l-0.365,0.044c-0.049-1.312-0.879-1.953-2.516-1.953
				c-1.373,0-2.226,0.568-2.226,1.482c0,1.075,1.241,1.323,2.237,1.523l0.445,0.092c1.167,0.247,2.62,0.554,2.62,1.945
				C81.787-58.109,80.583-57.275,78.859-57.275z"/>
			<path fill="#FFFFFF" d="M78.782-64.649c1.72,0,2.76,0.772,2.76,2.213l-0.314-0.006c0-1.345-0.935-1.953-2.517-1.953
				c-1.401,0-2.275,0.598-2.275,1.532c0,1.224,1.522,1.41,2.562,1.63c1.206,0.258,2.739,0.518,2.739,1.93
				c0,1.166-1.175,1.979-2.878,1.979c-1.959,0-3.026-0.938-3.026-2.592h0.312c0,1.521,0.938,2.309,2.729,2.309
				c1.507,0,2.562-0.691,2.562-1.695c0-1.209-1.492-1.453-2.517-1.67c-1.161-0.244-2.808-0.479-2.808-1.858
				C76.112-63.973,77.107-64.649,78.782-64.649 M78.782-64.749c-1.734,0-2.77,0.717-2.77,1.917c0,1.367,1.528,1.679,2.644,1.906
				l0.244,0.05l0.164,0.035c1.013,0.21,2.273,0.473,2.273,1.538c0,0.939-1.012,1.595-2.461,1.595c-1.745,0-2.629-0.743-2.629-2.208
				v-0.1h-0.1h-0.312h-0.1v0.1c0,1.71,1.14,2.692,3.126,2.692c1.753,0,2.978-0.855,2.978-2.079c0-1.432-1.475-1.743-2.66-1.994
				l-0.159-0.034c-0.092-0.02-0.188-0.039-0.287-0.059c-0.979-0.196-2.197-0.44-2.197-1.474c0-0.883,0.833-1.432,2.175-1.432
				c1.604,0,2.417,0.624,2.417,1.853v0.098l0.098,0.002l0.314,0.006l0.102,0.002v-0.102C81.642-63.906,80.599-64.749,78.782-64.749
				L78.782-64.749z"/>
		</g>
		<path fill="#FFFFFF" d="M99.739-64.77c-1.413,0-2.118,0.743-2.469,1.453c-0.362-0.931-1.178-1.439-2.324-1.439
			c-1.137,0-1.974,0.483-2.448,1.403l-0.002-1.137l0-0.1h-0.1h-0.301h-0.1v0.1v6.949v0.1h0.1h0.301h0.1v-0.1v-4.06
			c0-1.613,0.965-2.697,2.402-2.697c1.674,0,2.025,1.112,2.025,2.045v4.709v0.1h0.1h0.306h0.1v-0.1v-4.535
			c0-1.347,0.901-2.217,2.296-2.217c1.316,0,2.041,0.682,2.041,1.92v4.832v0.1h0.1h0.317h0.1v-0.1v-4.736
			C102.281-63.885,101.379-64.77,99.739-64.77z"/>
		<path fill="#FFFFFF" d="M112.677-57.937c-0.185,0.051-0.27,0.064-0.412,0.064c-0.4,0-0.471-0.201-0.471-0.623v-4.191
			c0-1.341-0.973-2.08-2.738-2.08c-1.759,0-2.808,0.853-2.952,2.4l-0.01,0.109h0.109h0.285h0.091l0.009-0.09
			c0.13-1.308,0.948-1.971,2.433-1.971c1.557,0,2.282,0.575,2.282,1.811v0.047c0.001,0.288,0.001,0.585-0.262,0.735
			c-0.229,0.125-0.604,0.146-1.429,0.194c-0.24,0.014-0.519,0.03-0.841,0.051c-0.775,0.05-3.136,0.201-3.136,2.203
			c0,1.272,1,2.032,2.677,2.032c1.411,0,2.371-0.499,2.986-1.561c0,0.036,0,0.08,0,0.154v0.035
			c-0.001,0.324-0.001,0.604,0.112,0.818c0.13,0.246,0.384,0.36,0.8,0.36c0.194,0,0.321-0.015,0.502-0.06l0.076-0.019l0.014-0.081
			v-0.244v-0.132L112.677-57.937z M112.704-57.826l-0.003-0.014c0.001,0,0.002,0,0.003,0V-57.826z M108.319-57.684
			c-1.393,0-2.191-0.572-2.191-1.57c0-1.379,1.216-1.661,2.53-1.76c0.296-0.021,0.569-0.036,0.819-0.049
			c0.847-0.044,1.451-0.076,1.817-0.334v1.082c0,0.696-0.379,1.453-0.988,1.975C109.802-57.898,109.152-57.684,108.319-57.684z
			 M106.24-62.564c-0.009,0.07-0.023,0.135-0.029,0.208h-0.007C106.211-62.43,106.229-62.494,106.24-62.564z"/>
		<path fill="#FFFFFF" d="M122.189-67.305h-0.302h-0.1v0.1v4.151c-0.58-1.145-1.574-1.724-2.963-1.724
			c-2.121,0-3.491,1.52-3.491,3.872c0,2.283,1.32,3.702,3.446,3.702c1.397,0,2.5-0.649,3.005-1.729v1.395v0.1h0.1h0.303h0.1v-0.1
			l0.002-9.666v-0.1H122.189z M118.779-57.64c-1.832,0-2.927-1.227-2.927-3.281c0-2.104,1.125-3.412,2.936-3.412
			c2.211,0,2.996,1.728,2.996,3.345C121.784-58.922,120.633-57.64,118.779-57.64z"/>
		<path fill="#FFFFFF" d="M132.018-59.607c-0.284,1.021-1.249,1.958-2.748,1.958c-2.18,0-2.985-1.654-3.019-3.238h6.338h0.1v-0.1
			v-0.271c0-1.676-1.063-3.481-3.4-3.481c-2.124,0-3.551,1.529-3.551,3.805c0,2.263,1.388,3.725,3.536,3.725
			c1.641,0,2.878-0.934,3.255-2.398H132.018z M132.29-61.294h-0.004c0-0.043-0.008-0.085-0.01-0.128
			C132.279-61.379,132.289-61.337,132.29-61.294z M129.29-64.281c1.959,0,2.86,1.458,2.898,2.937h-5.931
			C126.356-62.779,127.332-64.281,129.29-64.281z M126.151-60.938h0.003c0.001,0.039,0.007,0.077,0.008,0.116
			C126.16-60.86,126.152-60.9,126.151-60.938z M126.202-61.245h0.229l-0.229,0.002C126.202-61.243,126.202-61.244,126.202-61.245z"
			/>
		<g>
			<path fill="#F7F7F8" d="M145.401-57.275c-1.983,0-3.076-0.938-3.076-2.642l0.366-0.05c0.05,1.548,0.951,2.309,2.729,2.309
				c1.479,0,2.512-0.677,2.512-1.646c0-1.106-1.284-1.373-2.315-1.587l-0.405-0.084c-1.158-0.236-2.6-0.531-2.6-1.857
				c0-1.169,1.016-1.867,2.718-1.867c1.784,0,2.808,0.825,2.808,2.263l-0.366,0.044c-0.049-1.312-0.88-1.953-2.518-1.953
				c-1.373,0-2.226,0.568-2.226,1.482c0,1.074,1.24,1.323,2.236,1.522l0.445,0.092c1.167,0.247,2.62,0.553,2.62,1.945
				C148.33-58.109,147.126-57.275,145.401-57.275z"/>
			<path fill="#FFFFFF" d="M145.33-64.649c1.719,0,2.758,0.772,2.758,2.213l-0.315-0.006c0-1.345-0.937-1.953-2.519-1.953
				c-1.4,0-2.275,0.598-2.275,1.532c0,1.224,1.523,1.41,2.562,1.63c1.207,0.258,2.739,0.518,2.739,1.93
				c0,1.166-1.177,1.979-2.879,1.979c-1.96,0-3.026-0.938-3.026-2.592h0.316c0,1.521,0.938,2.309,2.729,2.309
				c1.508,0,2.562-0.691,2.562-1.695c0-1.209-1.491-1.453-2.518-1.67c-1.16-0.244-2.803-0.479-2.803-1.858
				C142.662-63.973,143.652-64.649,145.33-64.649 M145.33-64.749c-1.733,0-2.768,0.717-2.768,1.917c0,1.368,1.525,1.679,2.64,1.906
				l0.242,0.05l0.162,0.034c1.014,0.21,2.276,0.473,2.276,1.538c0,0.939-1.013,1.595-2.462,1.595c-1.745,0-2.63-0.743-2.63-2.208
				v-0.1h-0.1h-0.316h-0.1v0.1c0,1.71,1.139,2.692,3.126,2.692c1.754,0,2.979-0.855,2.979-2.079c0-1.432-1.475-1.744-2.66-1.994
				l-0.158-0.033c-0.092-0.02-0.188-0.039-0.286-0.059c-0.979-0.196-2.197-0.44-2.197-1.474c0-0.883,0.834-1.432,2.176-1.432
				c1.604,0,2.419,0.624,2.419,1.853v0.098l0.098,0.002l0.315,0.006l0.102,0.002v-0.102
				C148.187-63.906,147.146-64.749,145.33-64.749L145.33-64.749z"/>
		</g>
		<g>
			<path fill="#F7F7F8" d="M152.057-57.49l-0.05-6.999l0.366-0.05l0.05,7.049H152.057z M152.057-65.771l-0.05-1.435l0.366-0.05
				l0.05,1.484H152.057z"/>
			<path fill="#FFFFFF" d="M152.374-67.206v1.385h-0.316v-1.385H152.374 M152.374-64.489v6.949h-0.316v-6.949H152.374
				 M152.473-67.306h-0.1h-0.316h-0.1v0.1v1.385v0.1h0.1h0.316h0.1v-0.1v-1.385V-67.306L152.473-67.306z M152.473-64.589h-0.1
				h-0.316h-0.1v0.1v6.949v0.1h0.1h0.316h0.1v-0.1v-6.949V-64.589L152.473-64.589z"/>
		</g>
		<path fill="#FFFFFF" d="M164.052-64.77c-1.416,0-2.122,0.742-2.473,1.452c-0.358-0.93-1.173-1.438-2.32-1.438
			c-1.14,0-1.977,0.481-2.447,1.397l-0.001-1.131v-0.1h-0.1h-0.301h-0.1v0.1v6.949v0.1h0.1h0.301h0.1v-0.1v-4.06
			c0-1.613,0.966-2.697,2.402-2.697c1.674,0,2.025,1.112,2.025,2.045v4.709v0.1h0.1h0.302h0.1v-0.1v-4.535
			c0-1.347,0.901-2.217,2.297-2.217c1.315,0,2.041,0.682,2.041,1.92v4.832v0.1h0.1h0.318h0.1v-0.1v-4.736
			C166.595-63.885,165.692-64.77,164.052-64.77z"/>
		<path fill="#FFFFFF" d="M173.896-64.795c-1.389,0-2.351,0.575-2.927,1.752v-1.445v-0.1h-0.1h-0.287h-0.1v0.1v9.365v0.1h0.1h0.303
			h0.1v-0.1v-3.502l-0.004-0.23c0.523,1.056,1.554,1.65,2.904,1.65c2.07,0,3.461-1.52,3.461-3.783
			C177.346-63.3,175.992-64.795,173.896-64.795z M173.896-64.336c1.843,0,2.943,1.248,2.943,3.337c0,2.063-1.128,3.345-2.943,3.345
			c-2.157,0-2.927-1.702-2.927-3.295C170.969-63.102,172.037-64.336,173.896-64.336z"/>
		<g>
			<polygon fill="#F7F7F8" points="180.955,-57.49 180.905,-67.205 181.256,-67.255 181.305,-57.49 			"/>
			<path fill="#FFFFFF" d="M181.256-67.205v9.666h-0.301v-9.666H181.256 M181.355-67.305h-0.1h-0.301h-0.1v0.1v9.666v0.1h0.1h0.301
				h0.1v-0.1v-9.666V-67.305L181.355-67.305z"/>
		</g>
		<path fill="#FFFFFF" d="M63.117-59.701c-0.009,0.032-0.015,0.065-0.024,0.097c0.008-0.032,0.013-0.065,0.021-0.097h-0.408
			c-0.249,1.058-1.223,2.051-2.769,2.051c-2.181,0-2.987-1.654-3.019-3.238h6.337h0.1v-0.1v-0.271c0-1.676-1.064-3.481-3.4-3.481
			c-2.125,0-3.552,1.529-3.552,3.805c0,2.263,1.388,3.725,3.536,3.725c1.675,0,2.93-0.974,3.279-2.492H63.117z M62.957-61.294
			h-0.004c0-0.043-0.008-0.085-0.01-0.128C62.946-61.38,62.955-61.337,62.957-61.294z M59.957-64.281
			c1.958,0,2.859,1.458,2.898,2.937h-5.932C57.022-62.779,57.998-64.281,59.957-64.281z M56.818-60.938h0.003
			c0,0.039,0.006,0.077,0.008,0.116C56.827-60.86,56.82-60.9,56.818-60.938z M56.868-61.245h0.23l-0.23,0.002
			C56.868-61.243,56.868-61.244,56.868-61.245z"/>
		<path fill="#FFFFFF" d="M191.042-59.607c-0.285,1.022-1.25,1.958-2.747,1.958c-1.375,0-2.977-0.851-3.021-3.238h6.336h0.1v-0.1
			v-0.271c0-1.676-1.063-3.481-3.399-3.481c-2.125,0-3.552,1.529-3.552,3.805c0,2.228,1.422,3.725,3.538,3.725
			c1.641,0,2.877-0.934,3.252-2.398H191.042z M191.311-61.294h-0.004c0-0.042-0.008-0.084-0.01-0.127
			C191.301-61.379,191.31-61.336,191.311-61.294z M188.312-64.281c1.958,0,2.859,1.458,2.897,2.937h-5.929
			C185.378-62.779,186.352-64.281,188.312-64.281z M185.174-60.938h0.003c0.001,0.039,0.007,0.078,0.008,0.117
			C185.182-60.86,185.175-60.9,185.174-60.938z M185.225-61.245h0.229l-0.229,0.002C185.225-61.243,185.225-61.244,185.225-61.245z"
			/>
	</g>
</g>
</svg>
