<svg width="252" height="80" viewBox="0 0 252 80" fill="none" xmlns="http://www.w3.org/2000/svg">
<g clip-path="url(#clip0_32_1310)">
<path d="M13.111 25H0.499847H0V25.5002V55.4532V55.9534H0.499847H1.34059H1.84044V55.4532V42.2809H12.8161C18.5603 42.2809 22.2712 38.8816 22.2712 33.6194C22.2712 28.2223 18.8472 25 13.111 25ZM1.84044 26.8007H12.5232C17.7436 26.8007 20.3898 29.1096 20.3898 33.6625C20.3898 37.9322 17.4807 40.4812 12.6071 40.4812H1.84044V26.8007Z" fill="white"/>
<path d="M35.979 33.3726H35.972H35.966C32.0312 33.4776 29.52 34.7611 27.9474 37.5732V33.9148V33.4146H27.4476H26.6029H26.103V33.9148V55.4554V55.9556H26.6029H27.4476H27.9474V55.4554V45.6095C27.9474 42.7853 28.0254 42.047 28.4693 40.6735C29.6769 36.928 31.9262 35.2953 35.991 35.2133L36.4808 35.2033V34.7131C36.4818 33.6037 36.4818 33.3726 35.979 33.3726Z" fill="white"/>
<path d="M39.26 25H38.7602V25.5002V29.7919V30.2921H39.26H40.1427H40.6426V29.7919V25.5002V25H40.1427H39.26Z" fill="white"/>
<path d="M39.26 33.4146H38.7602V33.9148V55.4554V55.9556H39.26H40.1427H40.6426V55.4554V33.9148V33.4146H40.1427H39.26Z" fill="white"/>
<path d="M68.1002 32.8662C64.9561 32.8662 62.6019 34.2928 61.2223 37.0099C60.1076 34.3848 57.8033 32.9082 54.7323 32.9082C51.7812 32.9082 49.5339 34.1577 48.1273 36.5517V33.9146V33.4144H47.6274H46.7867H46.2868V33.9146V55.4532V55.9534H46.7867H47.6264H48.1263V55.4532V42.8742C48.1263 37.9893 50.7295 34.708 54.6043 34.708C59.0909 34.708 60.0326 38.0513 60.0326 40.8554V55.4532V55.9534H60.5325H61.3722H61.8721V55.4532V41.4026C61.8721 37.336 64.3004 34.709 68.0582 34.709C71.5851 34.709 73.5285 36.7578 73.5285 40.4783V55.4542V55.9544H74.0284H74.9101H75.41V55.4542V40.7714C75.409 35.6733 72.8137 32.8662 68.1002 32.8662Z" fill="white"/>
<path d="M97.3203 48.8886C96.5835 52.0198 93.9453 54.913 89.8356 54.913C85.9597 54.913 81.825 52.367 81.6391 45.2681H99.0837H99.5836V44.7679V43.9266C99.5836 41.0965 98.7408 38.4444 97.2113 36.4576C95.4428 34.1627 92.9076 32.9502 89.8775 32.9502C83.8204 32.9502 79.7506 37.7661 79.7506 44.935C79.7506 51.9538 83.8034 56.6687 89.8356 56.6687C94.5851 56.6687 98.185 53.6425 99.2127 48.8876L97.3203 48.8886ZM89.8775 34.7509C95.1139 34.7509 97.5632 39.0506 97.7341 43.4694H81.6611C81.993 39.1757 84.6391 34.7509 89.8775 34.7509Z" fill="white"/>
<path d="M124.351 54.1527H103.954L124.415 26.8948L124.515 26.7607V26.5926L124.513 25.4992V25H124.013H103.288H102.789V25.5002V26.2995V26.7997H103.288H122.216L101.755 54.0156L101.654 54.1497V54.3167V55.4552V55.9554H102.154H124.351H124.851V55.4552V54.6529V54.1527H124.351Z" fill="#00A6EB"/>
<path d="M136.757 32.8682H136.754C130.596 32.8682 126.458 37.6341 126.458 44.7269C126.458 51.9308 130.45 56.5857 136.627 56.5857C142.83 56.5857 146.839 51.9968 146.839 44.893C146.839 37.5891 142.881 32.8682 136.757 32.8682ZM136.67 54.7869C131.585 54.7869 128.3 50.8214 128.3 44.6839C128.3 38.6925 131.681 34.6669 136.713 34.6659C141.722 34.6659 144.957 38.6805 144.957 44.894C144.957 50.9044 141.704 54.7869 136.67 54.7869Z" fill="#00A6EB"/>
<path d="M160.633 32.9082C157.474 32.9082 154.726 34.4678 153.145 37.0248V33.9146V33.4144H152.645H151.805H151.305V33.9146V55.4532V55.9534H151.805H152.687H153.187V55.4532V43.5054C153.187 39.2527 155.166 34.7079 160.717 34.7079C165.968 34.7079 167.07 38.4174 167.07 41.5276V55.4522V55.9524H167.57H168.453H168.952V55.4522V41.2335C168.953 36.0214 165.842 32.9082 160.633 32.9082Z" fill="#00A6EB"/>
<path d="M190.744 48.8575C190.016 52.0008 187.375 54.914 183.251 54.914C179.375 54.914 175.239 52.3679 175.055 45.2691H192.5H193V44.7689V43.9276C193 41.0974 192.156 38.4454 190.626 36.4586C188.857 34.1637 186.322 32.9512 183.294 32.9512C177.236 32.9512 173.166 37.7671 173.166 44.936C173.166 51.9548 177.219 56.6697 183.251 56.6697C188.013 56.6697 191.616 53.6294 192.634 48.8565L190.744 48.8575ZM183.294 34.7509C188.529 34.7509 190.979 39.0506 191.149 43.4694H175.076C175.406 39.1757 178.052 34.7509 183.294 34.7509Z" fill="#00A6EB"/>
<path d="M8.31845 77.5316L8.26847 72.5656L0.814748 72.6156L0.864733 77.4816L0.499844 77.5316L0.44986 67.8127L0.811749 67.7627L0.861734 72.3065L8.31446 72.2565L8.26447 67.8127L8.63136 67.7627L8.68534 77.5316H8.31845Z" fill="#F7F7F8"/>
<path d="M8.63136 67.8129L8.63535 77.4828H8.31845V72.5668H0.814745V77.4828H0.499841V67.8129H0.811746V72.3067H8.31445V67.8129H8.63136ZM8.73232 67.7129H8.63235H8.31445H8.21448V67.8129V72.2067H0.911715V67.8129V67.7129H0.811746H0.499841H0.399872V67.8129V77.4828V77.5828H0.499841H0.814745H0.914714V77.4828V72.6669H8.21848V77.4828V77.5828H8.31845H8.63535H8.73532V77.4828L8.73132 67.8129V67.7129H8.73232Z" fill="white"/>
<path d="M14.7745 77.7281C13.106 77.7281 12.1483 77.0058 12.1483 75.7463C12.1483 74.4308 13.16 73.7255 15.2413 73.5925L16.0811 73.5414C16.9098 73.4934 17.2877 73.4714 17.5256 73.3404C17.8156 73.1753 17.8146 72.8622 17.8146 72.5601C17.8146 71.2455 17.0728 70.6533 15.4823 70.6533C13.9667 70.6533 13.134 71.3326 13.005 72.6711L12.6661 72.7161C12.7541 71.1425 13.7828 70.3062 15.5133 70.3062C17.2457 70.3062 18.2004 71.0274 18.2004 72.336V76.5286C18.2004 76.9648 18.2834 77.2019 18.7233 77.2019C18.8702 77.2019 18.9572 77.1879 19.1481 77.1349L19.2051 77.43C18.9912 77.521 18.8672 77.535 18.6733 77.535C18.2774 77.535 18.0365 77.429 17.9165 77.2009C17.8096 76.9968 17.8096 76.7217 17.8096 76.4046C17.8096 76.1905 17.8096 76.1905 17.8156 76.0494L17.8275 75.7623C17.3367 77.1099 16.336 77.7281 14.7745 77.7281ZM17.8056 73.5204C17.4667 73.8286 16.8438 73.8606 15.9411 73.9086C15.6912 73.9216 15.4183 73.9356 15.1204 73.9576C13.7838 74.0587 12.5452 74.3468 12.5452 75.7683C12.5452 76.7977 13.3619 77.389 14.7855 77.389C15.6202 77.389 16.299 77.1639 16.8019 76.7207C17.4207 76.1885 17.8056 75.4172 17.8056 74.7069V73.5204Z" fill="#F7F7F8"/>
<path d="M15.5133 70.353C16.9918 70.353 18.1504 70.8962 18.1504 72.3328V76.5254C18.1504 76.9476 18.2264 77.2487 18.7233 77.2487C18.8742 77.2487 18.9642 77.2347 19.1611 77.1807L19.1551 77.4268C18.9892 77.4678 18.8692 77.4838 18.6733 77.4838C17.8445 77.4838 17.8595 77.0066 17.8595 76.3704C17.8595 76.1123 17.8595 76.2243 17.8785 75.7631C17.3367 76.9876 16.4 77.6779 14.7755 77.6779C13.151 77.6779 12.1993 76.9706 12.1993 75.7451C12.1993 74.1335 13.7548 73.7363 15.2463 73.6403C16.6779 73.5442 17.2307 73.5583 17.5516 73.3822C17.8835 73.1941 17.8655 72.823 17.8655 72.5128C17.8655 71.1583 17.0198 70.6011 15.4833 70.6011C13.9627 70.6011 13.088 71.2893 12.957 72.6639H12.6681C12.8021 71.1713 13.7968 70.353 15.5133 70.353ZM14.7865 77.4388C15.6412 77.4388 16.324 77.2097 16.8358 76.7575C17.4387 76.2393 17.8565 75.452 17.8565 74.7057V73.3932C17.4837 73.8694 16.5939 73.8003 15.1184 73.9074C13.8068 74.0064 12.4972 74.2915 12.4972 75.7671C12.4962 76.8296 13.3389 77.4388 14.7865 77.4388ZM15.5133 70.2529C13.7538 70.2529 12.7071 71.1063 12.5672 72.6539L12.5572 72.7629H12.6661H12.955H13.046L13.055 72.6729C13.18 71.3644 13.9967 70.7011 15.4823 70.7011C17.0398 70.7011 17.7646 71.2763 17.7646 72.5128V72.5578C17.7656 72.847 17.7666 73.1441 17.5006 73.2951C17.2727 73.4202 16.8738 73.4422 16.0781 73.4882C15.8372 73.5022 15.5602 73.5182 15.2383 73.5402C14.4626 73.5903 12.0983 73.7413 12.0983 75.7441C12.0983 77.0166 13.099 77.7769 14.7745 77.7769C16.186 77.7769 17.1458 77.2787 17.7596 76.2163C17.7596 76.2523 17.7596 76.2963 17.7596 76.3694V76.4024C17.7596 76.7275 17.7596 77.0076 17.8725 77.2217C18.0025 77.4688 18.2574 77.5829 18.6733 77.5829C18.8712 77.5829 18.9992 77.5679 19.1791 77.5228L19.2531 77.5038L19.2551 77.4278L19.2611 77.1817L19.2641 77.0466L19.1341 77.0827C18.9462 77.1347 18.8662 77.1467 18.7223 77.1467C18.3204 77.1467 18.2494 76.9456 18.2494 76.5234V72.3308C18.2504 70.9922 17.2787 70.2529 15.5133 70.2529ZM14.7865 77.3378C13.3939 77.3378 12.5961 76.7655 12.5961 75.7671C12.5961 74.3876 13.8118 74.1055 15.1244 74.0064C15.4203 73.9854 15.6932 73.9704 15.9431 73.9574C16.7879 73.9134 17.3917 73.8814 17.7546 73.6243V74.7057C17.7546 75.402 17.3777 76.1593 16.7699 76.6815C16.276 77.1177 15.6092 77.3378 14.7865 77.3378Z" fill="white"/>
<path d="M22.3522 79.9498L22.3022 70.531L22.6391 70.481L22.6891 72.4698C23.1229 70.9862 24.1286 70.2739 25.6672 70.2739C27.7295 70.2739 29.0621 71.7495 29.0621 74.0324C29.0621 76.2653 27.6935 77.7659 25.6562 77.7659C24.1186 77.7659 23.002 76.9856 22.5921 75.6251L22.7081 76.3954V79.9498H22.3522ZM25.6682 70.6331C23.7747 70.6331 22.6901 71.8866 22.6901 74.0724C22.6901 75.6901 23.4728 77.4198 25.6682 77.4198C27.5146 77.4198 28.6622 76.1183 28.6622 74.0224C28.6622 71.9316 27.5146 70.6331 25.6682 70.6331Z" fill="#F7F7F8"/>
<path d="M25.6682 70.3242C27.7025 70.3242 29.0131 71.7777 29.0131 74.0326C29.0131 76.2495 27.6875 77.7171 25.6572 77.7171C24.0257 77.7171 23.017 76.8628 22.6401 75.6123L22.6591 76.3976V79.901H22.3522V70.5322H22.6391V72.471C23.1059 71.1815 23.9957 70.3242 25.6682 70.3242ZM25.6682 77.469C27.5216 77.469 28.7122 76.1385 28.7122 74.0226C28.7122 71.8868 27.5516 70.5833 25.6682 70.5833C23.7387 70.5833 22.6401 71.8478 22.6401 74.0717C22.6391 75.7813 23.4818 77.469 25.6682 77.469ZM25.6682 70.2241C24.2766 70.2241 23.3149 70.7984 22.74 71.9758V70.5312V70.4312H22.6401H22.3522H22.2522V70.5312V79.9V80H22.3522H22.6581H22.758V79.9V76.3966L22.753 76.1705C23.2769 77.2239 24.3076 77.8172 25.6562 77.8172C27.7235 77.8172 29.1131 76.2965 29.1131 74.0326C29.1121 71.7197 27.7605 70.2241 25.6682 70.2241ZM25.6682 77.369C23.5088 77.369 22.74 75.6663 22.74 74.0727C22.74 71.9188 23.8067 70.6843 25.6682 70.6843C27.5116 70.6843 28.6123 71.9328 28.6123 74.0226C28.6113 76.0865 27.4836 77.369 25.6682 77.369Z" fill="white"/>
<path d="M32.811 79.9498L32.761 70.531L33.0979 70.481L33.1479 72.4698C33.5817 70.9862 34.5874 70.2739 36.126 70.2739C38.1883 70.2739 39.5209 71.7495 39.5209 74.0324C39.5209 76.2653 38.1523 77.7659 36.115 77.7659C34.5764 77.7659 33.4598 76.9856 33.0509 75.6251L33.1669 76.3954V79.9498H32.811ZM36.126 70.6331C34.2325 70.6331 33.1479 71.8866 33.1479 74.0724C33.1479 75.6901 33.9306 77.4198 36.126 77.4198C37.9724 77.4198 39.12 76.1183 39.12 74.0224C39.121 71.9316 37.9734 70.6331 36.126 70.6331Z" fill="#F7F7F8"/>
<path d="M36.126 70.3242C38.1603 70.3242 39.4709 71.7777 39.4709 74.0326C39.4709 76.2495 38.1443 77.7171 36.115 77.7171C34.4875 77.7171 33.4738 76.8628 33.0979 75.6123L33.1169 76.3976V79.901H32.811V70.5322H33.0979V72.471C33.5647 71.1815 34.4545 70.3242 36.126 70.3242ZM36.126 77.469C37.9794 77.469 39.17 76.1385 39.17 74.0226C39.17 71.8868 38.0094 70.5833 36.126 70.5833C34.1975 70.5833 33.0979 71.8478 33.0979 74.0717C33.0979 75.7813 33.9456 77.469 36.126 77.469ZM36.126 70.2241C34.7344 70.2241 33.7727 70.7984 33.1978 71.9758V70.5312V70.4312H33.0979H32.811H32.711V70.5312V79.9V80H32.811H33.1169H33.2168V79.9V76.3966L33.2118 76.1715C33.7347 77.2249 34.7654 77.8172 36.115 77.8172C38.1823 77.8172 39.5719 76.2965 39.5719 74.0326C39.5709 71.7197 38.2193 70.2241 36.126 70.2241ZM36.126 77.369C33.9666 77.369 33.1978 75.6663 33.1978 74.0727C33.1978 71.9188 34.2645 70.6843 36.126 70.6843C37.9694 70.6843 39.0701 71.9328 39.0701 74.0226C39.0701 76.0865 37.9424 77.369 36.126 77.369Z" fill="white"/>
<path d="M43.1658 77.5321L43.1158 70.5303L43.4817 70.4803L43.5317 77.5321H43.1658ZM43.1658 69.2478L43.1158 67.8122L43.4817 67.7622L43.5317 69.2468L43.1658 69.2478Z" fill="#F7F7F8"/>
<path d="M43.4827 67.812V69.1975H43.1658V67.812H43.4827ZM43.4827 70.53V77.4818H43.1658V70.53H43.4827ZM43.5827 67.7119H43.4827H43.1658H43.0658V67.812V69.1975V69.2975H43.1658H43.4817H43.5817V69.1975V67.812L43.5827 67.7119ZM43.5827 70.43H43.4827H43.1658H43.0658V70.53V77.4818V77.5819H43.1658H43.4817H43.5817V77.4818V70.53L43.5827 70.43Z" fill="white"/>
<path d="M47.4945 77.5299L47.4445 70.5281L47.7954 70.4781L47.8414 72.2778C48.1463 71.0783 49.2879 70.313 50.6545 70.313C52.441 70.313 53.5076 71.2744 53.5076 72.886V77.4789L53.1417 77.5289L53.0918 72.9851C53.0918 72.1217 52.7789 70.6731 50.6845 70.6731C48.6001 70.6731 47.8574 72.1977 47.8574 73.6243V77.5289L47.4945 77.5299Z" fill="#F7F7F8"/>
<path d="M50.6555 70.3632C52.4939 70.3632 53.4586 71.3846 53.4586 72.8862V77.4791H53.1427V72.9853C53.1427 71.6697 52.464 70.6243 50.6855 70.6243C48.5611 70.6243 47.8084 72.213 47.8084 73.6255V77.4811H47.4945V70.5293H47.7954L47.7914 72.279C48.1683 71.1675 49.2529 70.3632 50.6555 70.3632ZM50.6555 70.2632C49.4479 70.2632 48.4112 70.8524 47.8933 71.7998L47.8963 70.5283V70.4282H47.7964H47.4945H47.3945V70.5283V77.4801V77.5801H47.4945H47.8064H47.9063V77.4801V73.6245C47.9063 72.222 48.6351 70.7234 50.6835 70.7234C52.7349 70.7234 53.0408 72.1399 53.0408 72.9843V77.4781V77.5781H53.1407H53.4566H53.5566V77.4781V72.8852C53.5576 71.2446 52.4729 70.2632 50.6555 70.2632Z" fill="white"/>
<path d="M69.9916 77.7473C68.0062 77.7473 66.9125 76.8089 66.9125 75.1042L67.2784 75.0542C67.3284 76.6028 68.2291 77.3641 70.0056 77.3641C71.4841 77.3641 72.5178 76.6869 72.5178 75.7175C72.5178 74.611 71.2322 74.3439 70.1995 74.1298L69.7927 74.0458C68.636 73.8087 67.1965 73.5146 67.1965 72.1881C67.1965 71.0186 68.2121 70.3203 69.9126 70.3203C71.6971 70.3203 72.7208 71.1456 72.7208 72.5842L72.3579 72.6282C72.3089 71.3157 71.4781 70.6745 69.8376 70.6745C68.4681 70.6745 67.6163 71.2427 67.6163 72.157C67.6163 73.2325 68.8569 73.4806 69.8526 73.6807L70.2995 73.7727C71.4661 74.0198 72.9197 74.3269 72.9197 75.7175C72.9187 76.9129 71.7161 77.7473 69.9916 77.7473Z" fill="#F7F7F8"/>
<path d="M69.9116 70.3701C71.6301 70.3701 72.6698 71.1424 72.6698 72.5839L72.3579 72.5779C72.3579 71.2324 71.4202 70.6242 69.8377 70.6242C68.4411 70.6242 67.5673 71.2224 67.5673 72.1568C67.5673 73.3813 69.0879 73.5673 70.1286 73.7874C71.3332 74.0455 72.8707 74.3056 72.8707 75.7182C72.8707 76.8847 71.6951 77.698 69.9936 77.698C68.0352 77.698 66.9645 76.7596 66.9645 75.105H67.2804C67.2804 76.6266 68.2151 77.4149 70.0076 77.4149C71.5181 77.4149 72.5688 76.7236 72.5688 75.7192C72.5688 74.5097 71.0773 74.2656 70.0486 74.0485C68.8919 73.8044 67.2464 73.5693 67.2464 72.1898C67.2454 71.0463 68.2401 70.3701 69.9116 70.3701ZM69.9116 70.27C68.1802 70.27 67.1455 70.9873 67.1455 72.1878C67.1455 73.5553 68.669 73.8665 69.7827 74.0946L70.0276 74.1446L70.1895 74.1786C71.2052 74.3887 72.4678 74.6518 72.4678 75.7172C72.4678 76.6566 71.4552 77.3128 70.0066 77.3128C68.2631 77.3128 67.3804 76.5695 67.3804 75.104V75.0039H67.2804H66.9645H66.8646V75.104C66.8646 76.8146 68.0052 77.797 69.9936 77.797C71.7461 77.797 72.9707 76.9417 72.9707 75.7172C72.9707 74.2856 71.4961 73.9735 70.3105 73.7234L70.1486 73.6894C70.0566 73.6694 69.9606 73.6504 69.8626 73.6314C68.8839 73.4353 67.6663 73.1912 67.6663 72.1568C67.6663 71.2734 68.4981 70.7242 69.8367 70.7242C71.4432 70.7242 72.2569 71.3485 72.2569 72.5779V72.676L72.3549 72.678L72.6668 72.684L72.7688 72.686V72.5839C72.7698 71.1134 71.7281 70.27 69.9116 70.27Z" fill="white"/>
<path d="M79.3337 77.7473C77.3504 77.7473 76.2587 76.8089 76.2587 75.1042L76.6206 75.0542C76.6706 76.6028 77.5723 77.3641 79.3487 77.3641C80.8273 77.3641 81.86 76.6869 81.86 75.7175C81.86 74.612 80.5774 74.3449 79.5477 74.1298L79.1398 74.0458C77.9802 73.8097 76.5376 73.5146 76.5376 72.1881C76.5376 71.0186 77.5543 70.3203 79.2568 70.3203C81.0422 70.3203 82.0659 71.1456 82.0659 72.5842L81.701 72.6282C81.652 71.3157 80.8223 70.6745 79.1858 70.6745C77.8132 70.6745 76.9605 71.2427 76.9605 72.157C76.9605 73.2325 78.2011 73.4806 79.1968 73.6807L79.6417 73.7727C80.8083 74.0198 82.2609 74.3269 82.2609 75.7185C82.2609 76.9129 81.0572 77.7473 79.3337 77.7473Z" fill="#F7F7F8"/>
<path d="M79.2568 70.3701C80.9762 70.3701 82.0159 71.1424 82.0159 72.5839L81.702 72.5779C81.702 71.2324 80.7673 70.6242 79.1858 70.6242C77.7852 70.6242 76.9115 71.2224 76.9115 72.1568C76.9115 73.3813 78.433 73.5673 79.4727 73.7874C80.6783 74.0455 82.2109 74.3056 82.2109 75.7182C82.2109 76.8847 81.0362 77.698 79.3337 77.698C77.3753 77.698 76.3087 76.7596 76.3087 75.105H76.6206C76.6206 76.6266 77.5583 77.4149 79.3487 77.4149C80.8553 77.4149 81.9099 76.7236 81.9099 75.7192C81.9099 74.5097 80.4184 74.2656 79.3937 74.0485C78.2331 73.8044 76.5866 73.5693 76.5866 72.1898C76.5876 71.0463 77.5823 70.3701 79.2568 70.3701ZM79.2568 70.27C77.5233 70.27 76.4876 70.9873 76.4876 72.1878C76.4876 73.5553 78.0151 73.8675 79.1308 74.0946L79.3747 74.1446L79.5387 74.1796C80.5514 74.3897 81.811 74.6528 81.811 75.7182C81.811 76.6576 80.7993 77.3138 79.3507 77.3138C77.6063 77.3138 76.7225 76.5705 76.7225 75.105V75.0049H76.6226H76.3107H76.2107V75.105C76.2107 76.8156 77.3503 77.798 79.3357 77.798C81.0882 77.798 82.3128 76.9427 82.3128 75.7182C82.3128 74.2856 80.8383 73.9745 79.6536 73.7234L79.4947 73.6894C79.4027 73.6694 79.3067 73.6504 79.2078 73.6304C78.2291 73.4343 77.0115 73.1902 77.0115 72.1558C77.0115 71.2724 77.8442 70.7232 79.1858 70.7232C80.7893 70.7232 81.602 71.3475 81.602 72.5769V72.675L81.7 72.677L82.0139 72.683L82.1159 72.685V72.5829C82.1159 71.1134 81.0732 70.27 79.2568 70.27Z" fill="white"/>
<path d="M100.207 70.249C98.7948 70.249 98.09 70.9923 97.7391 71.7026C97.3773 70.7712 96.5615 70.263 95.4159 70.263C94.2792 70.263 93.4425 70.7462 92.9686 71.6666L92.9666 70.5291V70.4291H92.8666H92.5657H92.4658V70.5291V77.4809V77.581H92.5657H92.8666H92.9666V77.4809V73.4193C92.9666 71.8056 93.9313 70.7212 95.3679 70.7212C97.0414 70.7212 97.3922 71.8337 97.3922 72.767V77.4779V77.578H97.4922H97.7981H97.8981V77.4779V72.9411C97.8981 71.5936 98.7988 70.7232 100.193 70.7232C101.509 70.7232 102.234 71.4055 102.234 72.644V77.4779V77.578H102.334H102.651H102.751V77.4779V72.74C102.749 71.1344 101.847 70.249 100.207 70.249Z" fill="white"/>
<path d="M113.141 77.0847C112.956 77.1357 112.871 77.1487 112.73 77.1487C112.33 77.1487 112.259 76.9476 112.259 76.5255V72.3328C112.259 70.9912 111.286 70.252 109.522 70.252C107.763 70.252 106.714 71.1053 106.57 72.6529L106.56 72.762H106.669H106.954H107.045L107.054 72.6719C107.184 71.3634 108.002 70.7001 109.487 70.7001C111.043 70.7001 111.768 71.2754 111.768 72.5119V72.5589C111.769 72.847 111.769 73.1441 111.506 73.2942C111.277 73.4192 110.902 73.4402 110.077 73.4882C109.837 73.5023 109.559 73.5183 109.237 73.5393C108.462 73.5893 106.102 73.7403 106.102 75.7431C106.102 77.0157 107.101 77.776 108.778 77.776C110.188 77.776 111.148 77.2768 111.763 76.2143C111.763 76.2504 111.763 76.2944 111.763 76.3684V76.4034C111.762 76.7275 111.762 77.0077 111.875 77.2217C112.005 77.4678 112.259 77.5819 112.675 77.5819C112.868 77.5819 112.995 77.5669 113.176 77.5219L113.252 77.5029L113.266 77.4218V77.1777V77.0457L113.141 77.0847ZM113.168 77.1957L113.165 77.1817H113.168V77.1957ZM108.785 77.3378C107.392 77.3378 106.594 76.7656 106.594 75.7672C106.594 74.3876 107.81 74.1055 109.124 74.0065C109.42 73.9854 109.692 73.9704 109.942 73.9574C110.789 73.9134 111.393 73.8814 111.759 73.6233V74.7057C111.759 75.402 111.38 76.1593 110.771 76.6815C110.267 77.1237 109.617 77.3378 108.785 77.3378ZM106.706 72.4558C106.697 72.5259 106.683 72.5909 106.677 72.6639H106.67C106.677 72.5899 106.695 72.5259 106.706 72.4558Z" fill="white"/>
<path d="M122.651 67.7129H122.349H122.249V67.8129V71.9656C121.669 70.8201 120.675 70.2409 119.287 70.2409C117.166 70.2409 115.797 71.7615 115.797 74.1145C115.797 76.3984 117.116 77.8179 119.242 77.8179C120.638 77.8179 121.741 77.1687 122.246 76.0882V77.4838V77.5838H122.346H122.649H122.748V77.4838L122.75 67.8139V67.7139L122.651 67.7129ZM119.242 77.3818C117.41 77.3818 116.315 76.1543 116.315 74.0994C116.315 71.9946 117.44 70.6861 119.251 70.6861C121.461 70.6861 122.246 72.4148 122.246 74.0324C122.246 76.0992 121.095 77.3818 119.242 77.3818Z" fill="white"/>
<path d="M132.477 75.4143C132.193 76.4357 131.228 77.3731 129.729 77.3731C127.55 77.3731 126.745 75.7184 126.711 74.1338H133.047H133.147V74.0338V73.7627C133.147 72.086 132.085 70.2803 129.748 70.2803C127.625 70.2803 126.198 71.8099 126.198 74.0868C126.198 76.3507 127.586 77.8133 129.733 77.8133C131.374 77.8133 132.61 76.8789 132.987 75.4143H132.477ZM132.748 73.7267H132.744C132.744 73.6836 132.736 73.6416 132.734 73.5986C132.737 73.6416 132.747 73.6836 132.748 73.7267ZM129.749 70.7385C131.708 70.7385 132.608 72.197 132.646 73.6766H126.717C126.816 72.2411 127.792 70.7385 129.749 70.7385ZM126.611 74.0828H126.614C126.615 74.1218 126.621 74.1598 126.622 74.1988C126.62 74.1608 126.612 74.1208 126.611 74.0828ZM126.662 73.7757H126.891L126.662 73.7777C126.662 73.7777 126.662 73.7767 126.662 73.7757Z" fill="white"/>
<path d="M145.855 77.7473C143.873 77.7473 142.78 76.8089 142.78 75.1042L143.146 75.0542C143.196 76.6028 144.097 77.3641 145.874 77.3641C147.353 77.3641 148.386 76.6869 148.386 75.7175C148.386 74.611 147.102 74.3439 146.071 74.1298L145.666 74.0458C144.509 73.8097 143.067 73.5146 143.067 72.1881C143.067 71.0186 144.083 70.3203 145.784 70.3203C147.568 70.3203 148.592 71.1456 148.592 72.5842L148.226 72.6282C148.177 71.3157 147.346 70.6745 145.708 70.6745C144.336 70.6745 143.483 71.2427 143.483 72.157C143.483 73.2315 144.723 73.4806 145.718 73.6797L146.163 73.7717C147.33 74.0188 148.782 74.3249 148.782 75.7175C148.783 76.9129 147.58 77.7473 145.855 77.7473Z" fill="#F7F7F8"/>
<path d="M145.784 70.3701C147.503 70.3701 148.542 71.1424 148.542 72.5839L148.227 72.5779C148.227 71.2324 147.29 70.6242 145.708 70.6242C144.309 70.6242 143.434 71.2224 143.434 72.1568C143.434 73.3813 144.957 73.5673 145.995 73.7874C147.202 74.0455 148.734 74.3056 148.734 75.7182C148.734 76.8847 147.557 77.698 145.855 77.698C143.896 77.698 142.83 76.7596 142.83 75.105H143.146C143.146 76.6266 144.084 77.4149 145.874 77.4149C147.382 77.4149 148.436 76.7236 148.436 75.7192C148.436 74.5097 146.945 74.2656 145.918 74.0485C144.759 73.8044 143.116 73.5693 143.116 72.1898C143.117 71.0463 144.107 70.3701 145.784 70.3701ZM145.784 70.27C144.052 70.27 143.017 70.9873 143.017 72.1878C143.017 73.5563 144.542 73.8675 145.656 74.0946L145.898 74.1446L146.06 74.1786C147.074 74.3887 148.336 74.6518 148.336 75.7172C148.336 76.6566 147.323 77.3128 145.874 77.3128C144.13 77.3128 143.245 76.5695 143.245 75.104V75.0039H143.145H142.829H142.729V75.104C142.729 76.8146 143.868 77.797 145.854 77.797C147.608 77.797 148.833 76.9417 148.833 75.7172C148.833 74.2846 147.358 73.9725 146.173 73.7224L146.015 73.6894C145.923 73.6694 145.827 73.6504 145.729 73.6304C144.751 73.4343 143.533 73.1902 143.533 72.1558C143.533 71.2724 144.367 70.7232 145.708 70.7232C147.312 70.7232 148.127 71.3475 148.127 72.5769V72.675L148.225 72.677L148.54 72.683L148.642 72.685V72.5829C148.641 71.1134 147.6 70.27 145.784 70.27Z" fill="white"/>
<path d="M152.509 77.5321L152.459 70.5303L152.825 70.4803L152.875 77.5321H152.509ZM152.509 69.2478L152.459 67.8122L152.825 67.7622L152.875 69.2468L152.509 69.2478Z" fill="#F7F7F8"/>
<path d="M152.826 67.812V69.1975H152.51V67.812H152.826ZM152.826 70.53V77.4818H152.51V70.53H152.826ZM152.925 67.7119H152.825H152.509H152.409V67.812V69.1975V69.2975H152.509H152.825H152.925V69.1975V67.812V67.7119ZM152.925 70.43H152.825H152.509H152.409V70.53V77.4818V77.5819H152.509H152.825H152.925V77.4818V70.53V70.43Z" fill="white"/>
<path d="M164.501 70.249C163.085 70.249 162.379 70.9913 162.028 71.7016C161.671 70.7712 160.856 70.263 159.709 70.263C158.57 70.263 157.733 70.7442 157.263 71.6606L157.262 70.5291V70.4291H157.162H156.861H156.761V70.5291V77.4809V77.581H156.861H157.162H157.262V77.4809V73.4193C157.262 71.8056 158.228 70.7212 159.663 70.7212C161.337 70.7212 161.688 71.8337 161.688 72.767V77.4779V77.578H161.788H162.089H162.189V77.4779V72.9411C162.189 71.5936 163.09 70.7232 164.486 70.7232C165.8 70.7232 166.526 71.4055 166.526 72.644V77.4779V77.578H166.626H166.944H167.044V77.4779V72.74C167.043 71.1344 166.14 70.249 164.501 70.249Z" fill="white"/>
<path d="M174.342 70.2241C172.953 70.2241 171.991 70.7994 171.416 71.9768V70.5312V70.4312H171.316H171.029H170.929V70.5312V79.9V80H171.029H171.332H171.432V79.9V76.3966L171.428 76.1665C171.95 77.2229 172.981 77.8172 174.331 77.8172C176.4 77.8172 177.791 76.2965 177.791 74.0326C177.791 71.7197 176.437 70.2241 174.342 70.2241ZM174.342 70.6833C176.184 70.6833 177.284 71.9318 177.284 74.0216C177.284 76.0855 176.156 77.368 174.342 77.368C172.185 77.368 171.416 75.6653 171.416 74.0717C171.416 71.9178 172.483 70.6833 174.342 70.6833Z" fill="white"/>
<path d="M181.399 77.5321L181.349 67.8132L181.699 67.7632L181.748 77.5321H181.399Z" fill="#F7F7F8"/>
<path d="M181.699 67.8129V77.4828H181.399V67.8129H181.699ZM181.798 67.7129H181.698H181.398H181.298V67.8129V77.4828V77.5828H181.398H181.698H181.798V77.4828V67.8129V67.7129Z" fill="white"/>
<path d="M63.5965 75.3203C63.5876 75.3523 63.5816 75.3853 63.5726 75.4173C63.5806 75.3853 63.5855 75.3523 63.5935 75.3203H63.1857C62.9367 76.3787 61.963 77.3721 60.4175 77.3721C58.2372 77.3721 57.4314 75.7175 57.3994 74.1328H63.7345H63.8345V74.0328V73.7617C63.8345 72.085 62.7708 70.2793 60.4355 70.2793C58.3112 70.2793 56.8846 71.8089 56.8846 74.0858C56.8846 76.3497 58.2722 77.8123 60.4195 77.8123C62.094 77.8123 63.3486 76.8379 63.6975 75.3193L63.5965 75.3203ZM63.4366 73.7267H63.4326C63.4326 73.6837 63.4246 73.6416 63.4226 73.5986C63.4256 73.6406 63.4346 73.6837 63.4366 73.7267ZM60.4375 70.7385C62.3949 70.7385 63.2956 72.1971 63.3346 73.6767H57.4044C57.5034 72.2411 58.4791 70.7385 60.4375 70.7385ZM57.2995 74.0828H57.3025C57.3025 74.1218 57.3085 74.1598 57.3105 74.1989C57.3085 74.1608 57.3015 74.1208 57.2995 74.0828ZM57.3495 73.7757H57.5794L57.3495 73.7777C57.3495 73.7777 57.3495 73.7767 57.3495 73.7757Z" fill="white"/>
<path d="M191.482 75.4143C191.198 76.4367 190.233 77.3731 188.736 77.3731C187.362 77.3731 185.76 76.5218 185.716 74.1338H192.05H192.15V74.0338V73.7627C192.15 72.086 191.088 70.2803 188.752 70.2803C186.628 70.2803 185.201 71.8099 185.201 74.0868C185.201 76.3157 186.623 77.8133 188.738 77.8133C190.379 77.8133 191.614 76.8789 191.989 75.4143H191.482ZM191.751 73.7267H191.747C191.747 73.6846 191.739 73.6426 191.737 73.5996C191.741 73.6416 191.75 73.6846 191.751 73.7267ZM188.753 70.7385C190.711 70.7385 191.611 72.197 191.649 73.6766H185.722C185.82 72.2411 186.794 70.7385 188.753 70.7385ZM185.616 74.0828H185.619C185.62 74.1218 185.626 74.1608 185.627 74.1998C185.624 74.1608 185.617 74.1208 185.616 74.0828ZM185.667 73.7757H185.896L185.667 73.7777C185.667 73.7777 185.667 73.7767 185.667 73.7757Z" fill="white"/>
<path d="M200.36 78V17.904L190.76 19.728V17.232L203.048 15.216V78H200.36Z" fill="#E43030"/>
<path d="M232.784 44.0101C232.784 37.9838 231.985 33.4641 230.387 30.451C228.79 27.4378 226.292 25.9312 222.895 25.9312C219.518 25.9312 217.04 27.4378 215.463 30.451C213.886 33.4439 213.097 37.9838 213.097 44.0708C213.097 50.1577 213.906 54.6876 215.524 57.6603C217.142 60.6127 219.619 62.089 222.956 62.089C226.312 62.089 228.79 60.5824 230.387 57.5693C231.985 54.5561 232.784 50.0364 232.784 44.0101ZM210.124 43.8281C210.124 36.9525 211.176 31.8463 213.279 28.5096C215.382 25.1527 218.557 23.4742 222.804 23.4742C227.071 23.4742 230.296 25.2133 232.48 28.6916C234.685 32.1496 235.787 37.3064 235.787 44.1618C235.787 50.997 234.715 56.1031 232.571 59.4803C230.448 62.8574 227.253 64.546 222.986 64.546C218.739 64.546 215.534 62.8069 213.37 59.3286C211.206 55.8504 210.124 50.6835 210.124 43.8281Z" fill="#E43030"/>
<path d="M219.399 42.04C219.339 42.028 219.273 42.022 219.201 42.022C219.135 42.016 219.069 42.01 219.003 42.004H218.985C218.943 42.004 218.922 42.028 218.922 42.076V45.46C218.922 45.508 218.949 45.532 219.003 45.532L219.3 45.514C219.39 45.502 219.468 45.529 219.534 45.595C219.6 45.655 219.633 45.733 219.633 45.829C219.633 45.919 219.6 45.994 219.534 46.054C219.468 46.114 219.39 46.141 219.3 46.135C219.144 46.123 219.003 46.114 218.877 46.108C218.757 46.102 218.637 46.099 218.517 46.099C218.397 46.099 218.274 46.102 218.148 46.108C218.022 46.114 217.881 46.123 217.725 46.135C217.635 46.141 217.557 46.114 217.491 46.054C217.425 45.994 217.392 45.919 217.392 45.829C217.392 45.733 217.425 45.655 217.491 45.595C217.557 45.529 217.635 45.502 217.725 45.514C217.797 45.52 217.875 45.526 217.959 45.532C218.043 45.538 218.124 45.547 218.202 45.559C218.256 45.559 218.283 45.532 218.283 45.478V42.193C218.283 42.139 218.256 42.112 218.202 42.112H216.798C216.744 42.112 216.717 42.139 216.717 42.193C216.705 42.709 216.681 43.132 216.645 43.462C216.615 43.792 216.573 44.062 216.519 44.272C216.471 44.482 216.414 44.677 216.348 44.857C216.24 45.151 216.096 45.397 215.916 45.595C215.742 45.787 215.556 45.928 215.358 46.018C215.166 46.114 214.986 46.162 214.818 46.162C214.596 46.162 214.425 46.096 214.305 45.964C214.191 45.832 214.134 45.697 214.134 45.559C214.134 45.439 214.176 45.337 214.26 45.253C214.35 45.163 214.455 45.118 214.575 45.118C214.677 45.118 214.77 45.154 214.854 45.226C214.938 45.292 214.98 45.4 214.98 45.55C214.98 45.616 215.007 45.64 215.061 45.622C215.229 45.556 215.373 45.457 215.493 45.325C215.619 45.187 215.721 44.989 215.799 44.731C215.883 44.473 215.946 44.131 215.988 43.705C216.036 43.273 216.066 42.733 216.078 42.085C216.078 42.031 216.057 42.004 216.015 42.004C215.937 42.004 215.862 42.007 215.79 42.013C215.724 42.019 215.661 42.028 215.601 42.04C215.511 42.046 215.433 42.019 215.367 41.959C215.301 41.899 215.268 41.821 215.268 41.725C215.268 41.641 215.298 41.569 215.358 41.509C215.418 41.449 215.49 41.419 215.574 41.419C215.658 41.419 215.748 41.425 215.844 41.437C215.94 41.443 216.036 41.449 216.132 41.455H218.877C218.973 41.449 219.069 41.443 219.165 41.437C219.261 41.425 219.348 41.419 219.426 41.419C219.51 41.419 219.582 41.449 219.642 41.509C219.702 41.569 219.732 41.641 219.732 41.725C219.732 41.821 219.699 41.899 219.633 41.959C219.567 42.019 219.489 42.046 219.399 42.04ZM223.899 46.153C223.467 46.153 223.074 46.045 222.72 45.829C222.372 45.613 222.093 45.325 221.883 44.965C221.673 44.605 221.568 44.209 221.568 43.777C221.568 43.339 221.664 42.94 221.856 42.58C222.054 42.22 222.321 41.932 222.657 41.716C222.999 41.5 223.383 41.392 223.809 41.392C224.445 41.392 224.952 41.59 225.33 41.986C225.714 42.376 225.939 42.892 226.005 43.534C226.023 43.684 225.978 43.813 225.87 43.921C225.768 44.023 225.642 44.074 225.492 44.074H222.342C222.282 44.074 222.258 44.104 222.27 44.164C222.324 44.428 222.429 44.662 222.585 44.866C222.741 45.07 222.933 45.229 223.161 45.343C223.389 45.457 223.635 45.514 223.899 45.514C224.127 45.514 224.343 45.466 224.547 45.37C224.757 45.268 224.937 45.133 225.087 44.965C225.177 44.875 225.273 44.83 225.375 44.83C225.441 44.83 225.504 44.851 225.564 44.893C225.66 44.959 225.708 45.049 225.708 45.163C225.708 45.241 225.684 45.304 225.636 45.352C225.42 45.604 225.159 45.802 224.853 45.946C224.553 46.084 224.235 46.153 223.899 46.153ZM222.27 43.336C222.27 43.342 222.267 43.348 222.261 43.354C222.261 43.354 222.261 43.357 222.261 43.363C222.261 43.405 222.288 43.426 222.342 43.426H225.231C225.291 43.426 225.315 43.396 225.303 43.336C225.225 42.916 225.066 42.589 224.826 42.355C224.586 42.115 224.247 41.995 223.809 41.995C223.389 41.995 223.044 42.118 222.774 42.364C222.504 42.61 222.336 42.934 222.27 43.336ZM232.044 42.553C232.05 42.643 232.02 42.721 231.954 42.787C231.888 42.853 231.81 42.886 231.72 42.886C231.63 42.886 231.552 42.853 231.486 42.787C231.42 42.721 231.39 42.643 231.396 42.553L231.423 42.229C231.423 42.175 231.399 42.148 231.351 42.148H230.523C230.469 42.148 230.442 42.175 230.442 42.229V45.487C230.442 45.535 230.463 45.559 230.505 45.559C230.577 45.559 230.649 45.556 230.721 45.55C230.793 45.538 230.859 45.532 230.919 45.532C231.003 45.532 231.075 45.562 231.135 45.622C231.195 45.682 231.225 45.757 231.225 45.847C231.225 45.937 231.192 46.012 231.126 46.072C231.06 46.138 230.979 46.168 230.883 46.162C230.697 46.144 230.547 46.129 230.433 46.117C230.319 46.111 230.208 46.108 230.1 46.108C229.974 46.108 229.854 46.111 229.74 46.117C229.632 46.129 229.491 46.144 229.317 46.162C229.221 46.168 229.14 46.138 229.074 46.072C229.008 46.012 228.975 45.937 228.975 45.847C228.975 45.757 229.005 45.682 229.065 45.622C229.125 45.562 229.197 45.532 229.281 45.532C229.341 45.532 229.404 45.535 229.47 45.541C229.542 45.547 229.611 45.553 229.677 45.559H229.695C229.737 45.559 229.758 45.535 229.758 45.487V42.229C229.758 42.175 229.731 42.148 229.677 42.148H228.849C228.801 42.148 228.777 42.175 228.777 42.229L228.804 42.553C228.81 42.643 228.78 42.721 228.714 42.787C228.648 42.853 228.57 42.886 228.48 42.886C228.39 42.886 228.312 42.853 228.246 42.787C228.18 42.721 228.15 42.643 228.156 42.553C228.168 42.457 228.177 42.355 228.183 42.247C228.189 42.133 228.195 42.019 228.201 41.905C228.213 41.779 228.261 41.674 228.345 41.59C228.435 41.5 228.543 41.455 228.669 41.455H231.531C231.657 41.455 231.765 41.5 231.855 41.59C231.945 41.674 231.993 41.779 231.999 41.905C232.005 42.019 232.011 42.133 232.017 42.247C232.029 42.355 232.038 42.457 232.044 42.553Z" fill="#00A6EB"/>
</g>
<defs>
<clipPath id="clip0_32_1310">
<rect width="252" height="80" fill="white"/>
</clipPath>
</defs>
</svg>
